Coordinates
version=1
nRows=54
nColumns=12
inDegrees=yes

Units are S.I. units (second, meters, Newtons, ...)
Angles are in degrees

endheader
time	SC_y	SC_z	SC_x	AC_y	AC_z	AC_x	GH_y	GH_z	GH_yy	EL_x	PS_y
       0.0              -13.47          30.04          11.26          55.89         -9.864          17.78         -14.42          30.74         -92.45          105.5          118.0
   0.01827              -13.47          30.04          11.26          55.89         -9.863          17.78         -14.45          30.74         -92.44          105.5          118.0
   0.03653              -13.47          30.04          11.26          55.89         -9.861          17.78         -14.47          30.73         -92.43          105.5          118.0
    0.0548              -13.47          30.04          11.26          55.89         -9.859          17.78          -14.5          30.73         -92.42          105.5          117.9
   0.07307              -13.47          30.04          11.26          55.89         -9.857          17.77         -14.53          30.72         -92.42          105.5          117.9
   0.09133              -13.47          30.04          11.26          55.89         -9.854          17.77         -14.56          30.72         -92.41          105.5          117.9
    0.1096              -13.47          30.04          11.26          55.89         -9.852          17.77         -14.59          30.71          -92.4          105.5          117.9
    0.1279              -13.48          30.04          11.26          55.89         -9.849          17.77         -14.63           30.7         -92.39          105.5          117.9
    0.1461              -13.48          30.04          11.26          55.89         -9.847          17.77         -14.66           30.7         -92.38          105.5          117.9
    0.1644              -13.48          30.04          11.26          55.89         -9.844          17.77          -14.7          30.69         -92.37          105.4          117.9
    0.1827              -13.48          30.04          11.26          55.89          -9.84          17.77         -14.75          30.68         -92.35          105.4          117.8
    0.2009              -13.48          30.03          11.26           55.9         -9.837          17.77         -14.79          30.68         -92.34          105.4          117.8
    0.2192              -13.48          30.03          11.26           55.9         -9.833          17.77         -14.84          30.67         -92.33          105.4          117.8
    0.2375              -13.48          30.03          11.26           55.9         -9.829          17.76          -14.9          30.66         -92.31          105.4          117.8
    0.2557              -13.49          30.03          11.26           55.9         -9.825          17.76         -14.96          30.65          -92.3          105.4          117.8
     0.274              -13.49          30.03          11.27           55.9          -9.82          17.76         -15.02          30.64         -92.28          105.3          117.7
    0.2923              -13.49          30.03          11.27           55.9         -9.815          17.76         -15.09          30.62         -92.26          105.3          117.7
    0.3105              -13.49          30.03          11.27           55.9          -9.81          17.76         -15.16          30.61         -92.24          105.3          117.7
    0.3288              -13.49          30.03          11.27           55.9         -9.803          17.75         -15.25           30.6         -92.21          105.3          117.6
    0.3471               -13.5          30.02          11.27           55.9         -9.797          17.75         -15.34          30.58         -92.19          105.2          117.6
    0.3653               -13.5          30.02          11.27           55.9         -9.789          17.75         -15.44          30.56         -92.16          105.2          117.6
    0.3836               -13.5          30.02          11.27           55.9         -9.781          17.74         -15.54          30.55         -92.13          105.1          117.5
    0.4019              -13.51          30.02          11.27          55.91         -9.773          17.74         -15.66          30.52          -92.1          105.1          117.5
    0.4201              -13.51          30.02          11.27          55.91         -9.763          17.74          -15.8           30.5         -92.06          105.1          117.4
    0.4384              -13.51          30.01          11.27          55.91         -9.752          17.73         -15.95          30.48         -92.02          105.0          117.4
    0.4567              -13.52          30.01          11.27          55.91         -9.739          17.73         -16.11          30.45         -91.97          104.9          117.3
    0.4749              -13.53          30.01          11.27          55.91         -9.726          17.72          -16.3          30.42         -91.92          104.9          117.2
    0.4932              -13.53           30.0          11.28          55.91          -9.71          17.72         -16.51          30.38         -91.86          104.8          117.2
    0.5115              -13.54           30.0          11.28          55.92         -9.693          17.71         -16.74          30.34         -91.79          104.7          117.1
    0.5297              -13.55          29.99          11.28          55.92         -9.673           17.7         -17.01          30.29         -91.72          104.6          117.0
     0.548              -13.56          29.99          11.28          55.92         -9.651          17.69         -17.31          30.24         -91.63          104.5          116.8
    0.5663              -13.57          29.98          11.28          55.93         -9.625          17.68         -17.66          30.18         -91.53          104.4          116.7
    0.5845              -13.58          29.97          11.29          55.93         -9.595          17.67         -18.07          30.11         -91.42          104.2          116.5
    0.6028              -13.59          29.96          11.29          55.94          -9.56          17.66         -18.54          30.03         -91.29          104.1          116.4
    0.6211              -13.61          29.95          11.29          55.94          -9.52          17.64         -19.09          29.93         -91.13          103.9          116.1
    0.6393              -13.63          29.94           11.3          55.95         -9.472          17.62         -19.73          29.82         -90.95          103.6          115.9
    0.6576              -13.65          29.93           11.3          55.96         -9.415           17.6          -20.5          29.69         -90.74          103.3          115.6
    0.6759              -13.68          29.91          11.31          55.97         -9.347          17.57         -21.43          29.53         -90.48          103.0          115.2
    0.6941              -13.71          29.89          11.32          55.98         -9.264          17.54         -22.54          29.33         -90.16          102.6          114.8
    0.7124              -13.75          29.86          11.33           56.0         -9.163           17.5         -23.91           29.1         -89.78          102.1          114.2
    0.7307               -13.8          29.83          11.34          56.02         -9.039          17.45         -25.59          28.81         -89.31          101.5          113.6
    0.7489              -13.86          29.79          11.36          56.04         -8.884          17.38         -27.69          28.44         -88.72          100.7          112.8
    0.7672              -13.94          29.74          11.38          56.07         -8.688           17.3         -30.33          27.99         -87.98          99.79          111.7
    0.7855              -14.04          29.68           11.4          56.11          -8.44           17.2         -33.69          27.41         -87.03          98.57          110.4
    0.8037              -14.17           29.6          11.43          56.16         -8.122          17.08         -37.99          26.66         -85.82          97.01          108.7
     0.822              -14.33           29.5          11.47          56.22         -7.714          16.91         -43.51          25.71         -84.27          95.02          106.5
    0.8403              -14.54          29.36          11.52           56.3         -7.193           16.7         -50.56          24.49         -82.29          92.46          103.7
    0.8585              -14.81           29.2          11.59           56.4         -6.538          16.44         -59.43          22.95          -79.8          89.25          100.3
    0.8768              -15.13          28.99          11.67          56.52         -5.739          16.12         -70.23          21.08         -76.76          85.34           96.0
    0.8951               -15.5          28.76          11.76          56.66         -4.813          15.75         -82.75          18.92         -73.24          80.81          91.07
    0.9133               -15.9          28.51          11.86          56.82         -3.811          15.34         -96.31          16.57         -69.43           75.9          85.73
    0.9316              -16.31          28.25          11.95          56.97         -2.809          14.94         -109.9          14.22         -65.62          70.99          80.39
    0.9499              -16.68          28.02          12.04          57.11         -1.883          14.57         -122.4          12.06          -62.1          66.45          75.46
    0.9681               -17.0          27.81          12.12          57.23         -1.084          14.25         -133.2          10.19         -59.07          62.54          71.21
